<svg version="1.0" preserveAspectRatio="xMidYMid meet" viewBox="0 44.96776424355301 476.01 197.76145780229228" zoomAndPan="magnify" xmlns:xlink="http://www.w3.org/1999/xlink" xmlns="http://www.w3.org/2000/svg" style="max-height: 500px" width="476.01" height="197.76145780229228"><defs><g/></defs><g fill-opacity="1" fill="#df1710"><g transform="translate(3.946839, 118.699142)"><g><path d="M 30.53125 -47.90625 C 31.40625 -47.207031 32.3125 -46.707031 33.25 -46.40625 C 34.1875 -46.101562 35.375 -45.953125 36.8125 -45.953125 C 37.882812 -45.953125 38.878906 -46.09375 39.796875 -46.375 C 40.710938 -46.65625 41.578125 -47.066406 42.390625 -47.609375 L 42.390625 -59.453125 C 41.546875 -59.722656 40.710938 -60.132812 39.890625 -60.6875 C 39.078125 -61.238281 38.21875 -61.953125 37.3125 -62.828125 L 30.53125 -59.15625 Z M 30.53125 -26.96875 C 31.4375 -27.46875 32.332031 -27.84375 33.21875 -28.09375 C 34.101562 -28.34375 35.03125 -28.46875 36 -28.46875 C 36.90625 -28.46875 37.859375 -28.347656 38.859375 -28.109375 C 39.867188 -27.878906 41.046875 -27.5 42.390625 -26.96875 L 42.390625 -45.953125 C 41.316406 -45.441406 40.273438 -45.0625 39.265625 -44.8125 C 38.265625 -44.5625 37.242188 -44.4375 36.203125 -44.4375 C 35.296875 -44.4375 34.382812 -44.578125 33.46875 -44.859375 C 32.550781 -45.148438 31.570312 -45.597656 30.53125 -46.203125 Z M 30.53125 -7.078125 L 33.953125 -6.171875 C 35.253906 -6.609375 36.585938 -7.003906 37.953125 -7.359375 C 39.328125 -7.710938 40.804688 -8.039062 42.390625 -8.34375 L 42.390625 -25.3125 C 41.378906 -25.875 40.351562 -26.289062 39.3125 -26.5625 C 38.28125 -26.832031 37.144531 -26.96875 35.90625 -26.96875 C 34.800781 -26.96875 33.820312 -26.820312 32.96875 -26.53125 C 32.113281 -26.25 31.300781 -25.804688 30.53125 -25.203125 Z M 23.65625 -10.703125 L 29.125 -8.03125 L 29.125 -58.09375 L 23.65625 -55.34375 Z M 4.015625 -1.453125 C 4.890625 -3.734375 6.144531 -5.660156 7.78125 -7.234375 C 9.425781 -8.804688 11.503906 -10.0625 14.015625 -11 L 14.015625 -53.28125 C 14.015625 -56.957031 13.453125 -59.46875 12.328125 -60.8125 C 11.203125 -62.15625 9.382812 -62.828125 6.875 -62.828125 C 5.300781 -62.828125 3.773438 -62.316406 2.296875 -61.296875 C 0.828125 -60.273438 -0.488281 -58.804688 -1.65625 -56.890625 C -1.757812 -57.359375 -1.832031 -57.816406 -1.875 -58.265625 C -1.925781 -58.722656 -1.953125 -59.085938 -1.953125 -59.359375 C -1.953125 -63.003906 -0.65625 -66.15625 1.9375 -68.8125 C 4.53125 -71.476562 7.648438 -72.8125 11.296875 -72.8125 C 14.878906 -72.8125 17.832031 -71.472656 20.15625 -68.796875 C 22.488281 -66.117188 23.65625 -62.617188 23.65625 -58.296875 L 23.65625 -57.390625 L 29.125 -60.0625 L 29.125 -72.71875 L 30.53125 -72.71875 L 30.53125 -60.859375 C 33.144531 -62.097656 35.90625 -63.742188 38.8125 -65.796875 C 41.726562 -67.859375 44.59375 -70.195312 47.40625 -72.8125 C 48.445312 -70.269531 49.609375 -68.363281 50.890625 -67.09375 C 52.179688 -65.820312 53.597656 -65.1875 55.140625 -65.1875 C 55.640625 -65.1875 56.191406 -65.289062 56.796875 -65.5 C 57.398438 -65.71875 58.101562 -66.0625 58.90625 -66.53125 C 58.539062 -64.863281 57.8125 -63.492188 56.71875 -62.421875 C 55.632812 -61.347656 53.96875 -60.394531 51.71875 -59.5625 L 51.71875 -15.8125 C 51.71875 -13.8125 51.898438 -12.019531 52.265625 -10.4375 C 52.640625 -8.863281 53.175781 -7.546875 53.875 -6.484375 C 52.738281 -6.679688 51.601562 -6.828125 50.46875 -6.921875 C 49.332031 -7.023438 48.175781 -7.078125 47 -7.078125 C 42.613281 -7.078125 38.328125 -6.210938 34.140625 -4.484375 C 29.960938 -2.765625 26.234375 -0.316406 22.953125 2.859375 C 21.472656 1.015625 19.6875 -0.414062 17.59375 -1.4375 C 15.507812 -2.457031 13.273438 -2.96875 10.890625 -2.96875 C 9.890625 -2.96875 8.835938 -2.847656 7.734375 -2.609375 C 6.628906 -2.378906 5.390625 -1.992188 4.015625 -1.453125 Z M 4.015625 -1.453125"/></g></g></g><g fill-opacity="1" fill="#df1710"><g transform="translate(58.772831, 118.699142)"><g><path d="M 26.515625 -9.4375 L 26.515625 -36.609375 C 25.640625 -37.046875 24.875 -37.597656 24.21875 -38.265625 C 23.570312 -38.929688 22.929688 -39.816406 22.296875 -40.921875 C 20.691406 -40.148438 19.203125 -39.5625 17.828125 -39.15625 C 16.453125 -38.757812 15.210938 -38.5625 14.109375 -38.5625 C 13.109375 -38.5625 12.101562 -38.726562 11.09375 -39.0625 C 10.09375 -39.40625 8.972656 -39.957031 7.734375 -40.71875 L 22.75 -21.59375 L 21.390625 -20.59375 L 15.21875 -28.46875 C 14.113281 -26.894531 13.304688 -25.363281 12.796875 -23.875 C 12.296875 -22.382812 12.046875 -20.800781 12.046875 -19.125 C 12.046875 -15.945312 13.035156 -13.269531 15.015625 -11.09375 C 16.992188 -8.914062 19.769531 -7.476562 23.34375 -6.78125 Z M 26.96875 -7.734375 L 17.078125 1.453125 C 12.828125 0.046875 9.488281 -2.019531 7.0625 -4.75 C 4.632812 -7.476562 3.421875 -10.484375 3.421875 -13.765625 C 3.421875 -16.941406 4.363281 -19.941406 6.25 -22.765625 C 8.144531 -25.597656 10.800781 -27.953125 14.21875 -29.828125 L 3.515625 -43.390625 L 3.71875 -43.390625 C 5.320312 -43.390625 7.019531 -43.96875 8.8125 -45.125 C 10.601562 -46.28125 12.46875 -47.992188 14.40625 -50.265625 C 15.175781 -47.523438 16.097656 -45.457031 17.171875 -44.0625 C 18.242188 -42.675781 19.484375 -41.984375 20.890625 -41.984375 C 22.398438 -41.984375 24 -42.660156 25.6875 -44.015625 C 27.375 -45.367188 29.253906 -47.519531 31.328125 -50.46875 C 31.460938 -48.488281 32.054688 -46.894531 33.109375 -45.6875 C 34.171875 -44.488281 35.503906 -43.890625 37.109375 -43.890625 C 37.410156 -43.890625 37.820312 -43.957031 38.34375 -44.09375 C 38.863281 -44.226562 39.40625 -44.410156 39.96875 -44.640625 C 39.769531 -43.671875 39.328125 -42.757812 38.640625 -41.90625 C 37.953125 -41.050781 36.941406 -40.140625 35.609375 -39.171875 L 35.609375 -15.8125 C 35.609375 -13 36.09375 -10.960938 37.0625 -9.703125 C 38.03125 -8.453125 39.585938 -7.828125 41.734375 -7.828125 L 42.78125 -7.828125 L 35.15625 1.65625 C 32.90625 0.65625 31.132812 -0.5625 29.84375 -2 C 28.5625 -3.445312 27.601562 -5.359375 26.96875 -7.734375 Z M 26.96875 -7.734375"/></g></g></g><g fill-opacity="1" fill="#df1710"><g transform="translate(97.629924, 118.699142)"><g><path d="M 14.875 1.5625 C 13.53125 -0.582031 11.84375 -2.265625 9.8125 -3.484375 C 7.789062 -4.710938 5.707031 -5.328125 3.5625 -5.328125 C 3.132812 -5.328125 2.800781 -5.328125 2.5625 -5.328125 C 2.332031 -5.328125 2.082031 -5.304688 1.8125 -5.265625 C 2.476562 -6.410156 3.3125 -7.414062 4.3125 -8.28125 C 5.320312 -9.15625 6.546875 -9.925781 7.984375 -10.59375 L 7.984375 -32.6875 C 7.984375 -35.695312 7.519531 -37.6875 6.59375 -38.65625 C 5.675781 -39.632812 3.8125 -40.257812 1 -40.53125 C 3.144531 -41.769531 5.0625 -43.234375 6.75 -44.921875 C 8.445312 -46.609375 9.914062 -48.539062 11.15625 -50.71875 C 13.195312 -49.414062 14.6875 -47.785156 15.625 -45.828125 C 16.5625 -43.867188 17.03125 -41.347656 17.03125 -38.265625 L 26.265625 -50.71875 C 27.066406 -48.570312 27.851562 -47.070312 28.625 -46.21875 C 29.394531 -45.363281 30.332031 -44.9375 31.4375 -44.9375 C 31.9375 -44.9375 32.445312 -45.035156 32.96875 -45.234375 C 33.488281 -45.441406 34.035156 -45.765625 34.609375 -46.203125 C 34.335938 -43.523438 33.488281 -41.335938 32.0625 -39.640625 C 30.644531 -37.953125 29.03125 -37.109375 27.21875 -37.109375 C 25.976562 -37.109375 24.8125 -37.414062 23.71875 -38.03125 C 22.632812 -38.65625 21.644531 -39.585938 20.75 -40.828125 L 17.03125 -35.796875 L 17.03125 -10.703125 C 18.394531 -10.234375 19.5625 -9.726562 20.53125 -9.1875 C 21.507812 -8.65625 22.332031 -8.050781 23 -7.375 L 24.859375 -8.734375 L 25.859375 -7.734375 C 23.316406 -6.054688 21.125 -4.445312 19.28125 -2.90625 C 17.445312 -1.375 15.976562 0.113281 14.875 1.5625 Z M 14.875 1.5625"/></g></g></g><g fill-opacity="1" fill="#df1710"><g transform="translate(126.242818, 118.699142)"><g><path d="M 19.328125 -24.453125 C 21.109375 -26.429688 23.554688 -29.023438 26.671875 -32.234375 C 32.328125 -38.066406 35.4375 -42.066406 36 -44.234375 C 34.664062 -42.734375 33.316406 -41.601562 31.953125 -40.84375 C 30.597656 -40.09375 29.269531 -39.71875 27.96875 -39.71875 C 26.632812 -39.71875 25.390625 -40.117188 24.234375 -40.921875 C 23.078125 -41.722656 22.097656 -42.894531 21.296875 -44.4375 L 16.875 -43.28125 L 16.875 -24.453125 Z M 6.171875 -7.28125 C 7.617188 -8.351562 9.21875 -9.207031 10.96875 -9.84375 C 12.726562 -10.476562 14.3125 -10.796875 15.71875 -10.796875 C 17.320312 -10.796875 18.828125 -10.394531 20.234375 -9.59375 C 21.640625 -8.789062 23.082031 -7.519531 24.5625 -5.78125 L 28.78125 -6.671875 L 28.78125 -25.71875 L 23.75 -25.71875 C 21.34375 -23 18.035156 -19.65625 13.828125 -15.6875 C 9.628906 -11.71875 7.078125 -8.914062 6.171875 -7.28125 Z M 3.265625 1.5625 L 2.0625 1.5625 C 2.0625 1.425781 2.078125 1.207031 2.109375 0.90625 C 2.140625 0.601562 2.15625 0.367188 2.15625 0.203125 C 2.15625 -2.171875 3.097656 -4.847656 4.984375 -7.828125 C 6.878906 -10.804688 10.289062 -14.804688 15.21875 -19.828125 L 5.875 -19.828125 C 6.582031 -20.941406 7.082031 -22.03125 7.375 -23.09375 C 7.675781 -24.164062 7.828125 -25.488281 7.828125 -27.0625 L 7.828125 -39.375 C 7.828125 -40.269531 7.648438 -41.132812 7.296875 -41.96875 C 6.953125 -42.8125 6.445312 -43.601562 5.78125 -44.34375 C 6.113281 -44.3125 6.851562 -44.253906 8 -44.171875 C 9.15625 -44.085938 10.085938 -44.046875 10.796875 -44.046875 C 14.242188 -44.046875 17.457031 -44.554688 20.4375 -45.578125 C 23.414062 -46.597656 26.195312 -48.128906 28.78125 -50.171875 C 29.71875 -48.992188 30.65625 -48.117188 31.59375 -47.546875 C 32.53125 -46.984375 33.484375 -46.703125 34.453125 -46.703125 C 35.453125 -46.703125 36.234375 -46.992188 36.796875 -47.578125 C 37.367188 -48.160156 37.722656 -49.023438 37.859375 -50.171875 L 39.46875 -50.171875 C 39.070312 -47.285156 38.160156 -44.503906 36.734375 -41.828125 C 35.304688 -39.148438 32.453125 -35.316406 28.171875 -30.328125 L 39.578125 -30.328125 C 39.003906 -29.828125 38.570312 -29.023438 38.28125 -27.921875 C 38 -26.816406 37.859375 -25.359375 37.859375 -23.546875 L 37.859375 -11.84375 C 37.859375 -9.875 38 -8.316406 38.28125 -7.171875 C 38.570312 -6.035156 39.050781 -4.914062 39.71875 -3.8125 C 38.414062 -4.21875 37.117188 -4.519531 35.828125 -4.71875 C 34.535156 -4.914062 33.222656 -5.015625 31.890625 -5.015625 C 28.703125 -5.015625 25.84375 -4.460938 23.3125 -3.359375 C 20.789062 -2.253906 18.476562 -0.550781 16.375 1.75 C 14.632812 -0.320312 13.160156 -1.765625 11.953125 -2.578125 C 10.742188 -3.398438 9.503906 -3.8125 8.234375 -3.8125 C 6.859375 -3.8125 5.726562 -3.332031 4.84375 -2.375 C 3.957031 -1.425781 3.429688 -0.113281 3.265625 1.5625 Z M 3.265625 1.5625"/></g></g></g><g fill-opacity="1" fill="#df1710"><g transform="translate(166.054033, 118.699142)"><g><path d="M 6.578125 -58.40625 L 4.515625 -57.09375 L 3.8125 -58.296875 C 6.894531 -60.503906 8.988281 -62.085938 10.09375 -63.046875 C 11.195312 -64.003906 12.015625 -64.867188 12.546875 -65.640625 C 13.253906 -63.929688 14.066406 -62.707031 14.984375 -61.96875 C 15.910156 -61.226562 17.09375 -60.859375 18.53125 -60.859375 C 18.664062 -60.859375 18.863281 -60.875 19.125 -60.90625 C 19.394531 -60.945312 19.597656 -60.96875 19.734375 -60.96875 C 19.203125 -59.1875 18.238281 -57.75 16.84375 -56.65625 C 15.457031 -55.570312 13.925781 -55.03125 12.25 -55.03125 C 11.3125 -55.03125 10.359375 -55.316406 9.390625 -55.890625 C 8.421875 -56.460938 7.484375 -57.300781 6.578125 -58.40625 Z M 15.921875 1 C 12.910156 0.195312 10.789062 -1.421875 9.5625 -3.859375 C 8.34375 -6.304688 7.734375 -10.546875 7.734375 -16.578125 L 7.734375 -37.3125 C 6.898438 -37.75 6.160156 -38.222656 5.515625 -38.734375 C 4.878906 -39.253906 4.28125 -39.882812 3.71875 -40.625 L 1.15625 -39.0625 L 0.40625 -40.21875 C 2.613281 -41.59375 4.753906 -43.09375 6.828125 -44.71875 C 8.898438 -46.34375 10.84375 -48.054688 12.65625 -49.859375 C 13.394531 -48.222656 14.320312 -46.960938 15.4375 -46.078125 C 16.5625 -45.191406 17.789062 -44.75 19.125 -44.75 C 19.363281 -44.75 19.675781 -44.8125 20.0625 -44.9375 C 20.445312 -45.070312 21.09375 -45.34375 22 -45.75 C 21.925781 -44.101562 21.460938 -42.671875 20.609375 -41.453125 C 19.753906 -40.234375 18.472656 -39.171875 16.765625 -38.265625 L 16.765625 -16.96875 C 16.765625 -13.519531 17.300781 -11.191406 18.375 -9.984375 C 19.445312 -8.785156 21.375 -8.132812 24.15625 -8.03125 C 22.28125 -6.457031 20.644531 -4.910156 19.25 -3.390625 C 17.863281 -1.867188 16.753906 -0.40625 15.921875 1 Z M 15.921875 1"/></g></g></g><g fill-opacity="1" fill="#df1710"><g transform="translate(186.833127, 118.699142)"><g><path d="M 4.921875 -2.5625 C 5.285156 -4 5.925781 -5.226562 6.84375 -6.25 C 7.769531 -7.269531 9.054688 -8.164062 10.703125 -8.9375 L 10.703125 -41.53125 L 9.796875 -41.53125 C 8.148438 -41.53125 6.734375 -41.394531 5.546875 -41.125 C 4.359375 -40.851562 3.363281 -40.453125 2.5625 -39.921875 C 2.625 -40.359375 2.691406 -40.925781 2.765625 -41.625 C 2.898438 -42.695312 2.96875 -43.382812 2.96875 -43.6875 C 2.96875 -44.125 2.941406 -44.625 2.890625 -45.1875 C 2.835938 -45.757812 2.742188 -46.664062 2.609375 -47.90625 C 3.515625 -47.5 4.507812 -47.195312 5.59375 -47 C 6.6875 -46.800781 7.867188 -46.703125 9.140625 -46.703125 L 10.703125 -46.703125 L 10.703125 -48.5625 C 10.703125 -50.875 10.441406 -52.707031 9.921875 -54.0625 C 9.398438 -55.414062 8.488281 -56.660156 7.1875 -57.796875 C 9.925781 -58.066406 12.515625 -58.828125 14.953125 -60.078125 C 17.398438 -61.335938 20 -63.253906 22.75 -65.828125 L 23.453125 -65.078125 C 22.078125 -63.578125 21.113281 -61.769531 20.5625 -59.65625 C 20.007812 -57.550781 19.734375 -54.285156 19.734375 -49.859375 L 19.734375 -46.703125 L 21.296875 -46.703125 C 22.566406 -46.703125 23.742188 -46.800781 24.828125 -47 C 25.921875 -47.195312 26.898438 -47.5 27.765625 -47.90625 C 27.734375 -47.769531 27.703125 -47.566406 27.671875 -47.296875 C 27.472656 -45.691406 27.375 -44.554688 27.375 -43.890625 C 27.375 -43.285156 27.457031 -42.316406 27.625 -40.984375 C 27.6875 -40.515625 27.734375 -40.160156 27.765625 -39.921875 C 26.929688 -40.453125 25.921875 -40.851562 24.734375 -41.125 C 23.546875 -41.394531 22.164062 -41.53125 20.59375 -41.53125 L 19.734375 -41.53125 L 19.734375 -11.09375 C 21.109375 -10.65625 22.3125 -10.035156 23.34375 -9.234375 C 24.382812 -8.429688 25.34375 -7.378906 26.21875 -6.078125 L 28.78125 -7.9375 L 29.625 -6.578125 C 26.976562 -4.671875 24.71875 -2.878906 22.84375 -1.203125 C 20.96875 0.472656 19.726562 1.796875 19.125 2.765625 C 18.257812 1.023438 16.9375 -0.394531 15.15625 -1.5 C 13.382812 -2.601562 11.515625 -3.15625 9.546875 -3.15625 C 8.910156 -3.15625 8.1875 -3.101562 7.375 -3 C 6.570312 -2.90625 5.753906 -2.757812 4.921875 -2.5625 Z M 4.921875 -2.5625"/></g></g></g><g fill-opacity="1" fill="#df1710"><g transform="translate(213.035609, 118.699142)"><g><path d="M 34 -50.515625 C 35.070312 -48.546875 36.660156 -46.929688 38.765625 -45.671875 C 40.878906 -44.410156 43.054688 -43.78125 45.296875 -43.78125 L 45.796875 -43.78125 C 45.128906 -42.613281 44.3125 -41.59375 43.34375 -40.71875 C 42.375 -39.851562 41.1875 -39.066406 39.78125 -38.359375 L 39.78125 -6.578125 C 40.3125 -5.410156 40.691406 -4.289062 40.921875 -3.21875 C 41.160156 -2.144531 41.28125 -1.039062 41.28125 0.09375 C 41.28125 5.457031 39.117188 9.988281 34.796875 13.6875 C 30.484375 17.382812 25.179688 19.234375 18.890625 19.234375 C 15.742188 19.234375 12.8125 18.285156 10.09375 16.390625 C 7.382812 14.503906 5.742188 13.5625 5.171875 13.5625 C 4.234375 13.5625 3.445312 13.835938 2.8125 14.390625 C 2.175781 14.941406 1.609375 15.867188 1.109375 17.171875 C 1.003906 16.304688 0.9375 15.671875 0.90625 15.265625 C 0.875 14.859375 0.859375 14.507812 0.859375 14.21875 C 0.859375 12 1.5625 10.101562 2.96875 8.53125 C 4.375 6.957031 6.046875 6.171875 7.984375 6.171875 C 9.328125 6.171875 10.582031 6.5625 11.75 7.34375 C 12.925781 8.132812 14.265625 9.519531 15.765625 11.5 C 17.304688 13.601562 18.660156 15.023438 19.828125 15.765625 C 21.003906 16.503906 22.363281 16.875 23.90625 16.875 C 26.550781 16.875 28.859375 15.914062 30.828125 14 C 32.804688 12.09375 33.796875 9.820312 33.796875 7.1875 C 33.796875 6.039062 33.273438 4.003906 32.234375 1.078125 C 31.203125 -1.847656 30.6875 -4.882812 30.6875 -8.03125 L 30.6875 -12.25 L 15.875 1 C 14.96875 -0.875 13.660156 -2.421875 11.953125 -3.640625 C 10.242188 -4.859375 8.535156 -5.46875 6.828125 -5.46875 C 6.460938 -5.46875 6.050781 -5.414062 5.59375 -5.3125 C 5.144531 -5.21875 4.503906 -5.019531 3.671875 -4.71875 C 4.035156 -5.894531 4.566406 -6.898438 5.265625 -7.734375 C 5.972656 -8.566406 6.914062 -9.351562 8.09375 -10.09375 L 8.09375 -32.796875 C 8.09375 -35.734375 7.503906 -37.832031 6.328125 -39.09375 C 5.160156 -40.351562 3.21875 -41.046875 0.5 -41.171875 L 0.859375 -41.484375 C 4.335938 -44.523438 7.015625 -47.601562 8.890625 -50.71875 C 11.941406 -49.914062 14.078125 -48.507812 15.296875 -46.5 C 16.515625 -44.488281 17.125 -41.191406 17.125 -36.609375 L 17.125 -11.703125 C 17.894531 -11.265625 18.679688 -10.675781 19.484375 -9.9375 C 20.285156 -9.207031 21.238281 -8.15625 22.34375 -6.78125 L 30.6875 -13.765625 L 30.6875 -38.265625 C 29.207031 -38.796875 28.148438 -39.226562 27.515625 -39.5625 C 26.878906 -39.90625 26.363281 -40.257812 25.96875 -40.625 L 24 -39.171875 L 23.296875 -40.421875 C 25.847656 -42.097656 27.976562 -43.75 29.6875 -45.375 C 31.394531 -47 32.832031 -48.710938 34 -50.515625 Z M 34 -50.515625"/></g></g></g><g fill-opacity="1" fill="#022b5e"><g transform="translate(255.913387, 118.699142)"><g/></g></g><g fill-opacity="1" fill="#272728"><g transform="translate(274.635649, 118.699142)"><g><path d="M 30.828125 -46.796875 C 31.898438 -46.429688 33.015625 -46.144531 34.171875 -45.9375 C 35.328125 -45.738281 36.523438 -45.640625 37.765625 -45.640625 C 38.734375 -45.640625 39.726562 -45.734375 40.75 -45.921875 C 41.769531 -46.109375 42.867188 -46.398438 44.046875 -46.796875 L 44.046875 -58.609375 C 42.972656 -59.242188 42.023438 -59.910156 41.203125 -60.609375 C 40.378906 -61.316406 39.601562 -62.117188 38.875 -63.015625 L 30.828125 -57.59375 Z M 30.828125 -23.453125 C 31.972656 -23.753906 33.054688 -23.976562 34.078125 -24.125 C 35.097656 -24.28125 36.078125 -24.359375 37.015625 -24.359375 C 38.347656 -24.359375 39.582031 -24.28125 40.71875 -24.125 C 41.863281 -23.976562 42.972656 -23.753906 44.046875 -23.453125 L 44.046875 -45.25 C 43.203125 -44.914062 42.296875 -44.679688 41.328125 -44.546875 C 40.359375 -44.410156 39.101562 -44.34375 37.5625 -44.34375 C 35.988281 -44.34375 34.71875 -44.414062 33.75 -44.5625 C 32.78125 -44.71875 31.828125 -44.976562 30.890625 -45.34375 Z M 30.828125 -13.25 C 33.109375 -12.550781 35.1875 -11.597656 37.0625 -10.390625 C 38.9375 -9.191406 40.710938 -7.71875 42.390625 -5.96875 L 44.046875 -6.875 L 44.046875 -21.796875 C 42.765625 -22.160156 41.601562 -22.425781 40.5625 -22.59375 C 39.53125 -22.757812 38.53125 -22.84375 37.5625 -22.84375 C 36.351562 -22.84375 35.1875 -22.75 34.0625 -22.5625 C 32.945312 -22.382812 31.867188 -22.128906 30.828125 -21.796875 Z M 29.421875 17.875 L 29.421875 -56.640625 L 24.453125 -53.578125 L 24.453125 2.96875 C 24.453125 7.476562 24.835938 10.710938 25.609375 12.671875 C 26.378906 14.640625 27.648438 16.375 29.421875 17.875 Z M 13.5625 20.59375 C 13.957031 18.144531 14.265625 15.832031 14.484375 13.65625 C 14.703125 11.476562 14.8125 9.601562 14.8125 8.03125 L 14.8125 -3.765625 C 12.875 -3.734375 11.207031 -3.082031 9.8125 -1.8125 C 8.425781 -0.539062 7.445312 1.234375 6.875 3.515625 C 6.375 2.410156 6.015625 1.378906 5.796875 0.421875 C 5.578125 -0.523438 5.46875 -1.453125 5.46875 -2.359375 C 5.46875 -5.441406 6.285156 -8.019531 7.921875 -10.09375 C 9.566406 -12.164062 11.863281 -13.539062 14.8125 -14.21875 L 14.8125 -30.625 C 14.476562 -30.664062 14.125 -30.691406 13.75 -30.703125 C 13.382812 -30.722656 12.921875 -30.734375 12.359375 -30.734375 C 10.609375 -30.734375 9.363281 -30.363281 8.625 -29.625 C 7.894531 -28.882812 7.53125 -27.644531 7.53125 -25.90625 C 6.789062 -26.882812 6.257812 -27.863281 5.9375 -28.84375 C 5.625 -29.832031 5.46875 -30.914062 5.46875 -32.09375 C 5.46875 -34.738281 6.09375 -36.703125 7.34375 -37.984375 C 8.601562 -39.273438 10.507812 -39.921875 13.0625 -39.921875 C 13.53125 -39.921875 13.878906 -39.910156 14.109375 -39.890625 C 14.347656 -39.878906 14.582031 -39.859375 14.8125 -39.828125 L 14.8125 -54.078125 C 14.8125 -56.929688 14.5 -58.898438 13.875 -59.984375 C 13.257812 -61.066406 12.164062 -61.609375 10.59375 -61.609375 C 9.15625 -61.609375 7.957031 -61.128906 7 -60.171875 C 6.050781 -59.222656 5.15625 -57.578125 4.3125 -55.234375 C 3.75 -56.304688 3.347656 -57.1875 3.109375 -57.875 C 2.878906 -58.5625 2.765625 -59.191406 2.765625 -59.765625 C 2.765625 -63.578125 3.832031 -66.632812 5.96875 -68.9375 C 8.113281 -71.25 10.960938 -72.40625 14.515625 -72.40625 C 17.722656 -72.40625 20.195312 -71.160156 21.9375 -68.671875 C 23.6875 -66.179688 24.5625 -62.625 24.5625 -58 C 24.5625 -57.59375 24.550781 -57.179688 24.53125 -56.765625 C 24.507812 -56.347656 24.484375 -55.90625 24.453125 -55.4375 L 29.421875 -58.296875 L 29.421875 -72.609375 L 30.828125 -72.609375 L 30.828125 -59.453125 C 34.410156 -61.796875 37.566406 -64.03125 40.296875 -66.15625 C 43.023438 -68.28125 45.492188 -70.429688 47.703125 -72.609375 C 49.015625 -70.835938 50.320312 -69.515625 51.625 -68.640625 C 52.925781 -67.773438 54.296875 -67.34375 55.734375 -67.34375 C 56.503906 -67.34375 57.195312 -67.472656 57.8125 -67.734375 C 58.4375 -68.003906 59.019531 -68.390625 59.5625 -68.890625 L 59.5625 -68.703125 C 59.5625 -66.992188 59.070312 -65.359375 58.09375 -63.796875 C 57.125 -62.242188 55.6875 -60.796875 53.78125 -59.453125 L 53.78125 -15.21875 C 53.78125 -12.96875 53.9375 -11.070312 54.25 -9.53125 C 54.570312 -8 55.066406 -6.53125 55.734375 -5.125 C 55.171875 -5.15625 54.617188 -5.175781 54.078125 -5.1875 C 53.546875 -5.207031 53.046875 -5.21875 52.578125 -5.21875 C 48.359375 -5.21875 44.84375 -4.554688 42.03125 -3.234375 C 39.21875 -1.910156 36.757812 0.21875 34.65625 3.15625 L 30.828125 0.09375 L 30.828125 20.34375 C 29.722656 20.132812 28.414062 19.519531 26.90625 18.5 C 25.40625 17.476562 23.5 15.898438 21.1875 13.765625 C 20.1875 15.128906 19.066406 16.363281 17.828125 17.46875 C 16.585938 18.570312 15.164062 19.613281 13.5625 20.59375 Z M 13.5625 20.59375"/></g></g></g><g fill-opacity="1" fill="#272728"><g transform="translate(331.82183, 118.699142)"><g><path d="M 14.875 1.5625 C 13.53125 -0.582031 11.84375 -2.265625 9.8125 -3.484375 C 7.789062 -4.710938 5.707031 -5.328125 3.5625 -5.328125 C 3.132812 -5.328125 2.800781 -5.328125 2.5625 -5.328125 C 2.332031 -5.328125 2.082031 -5.304688 1.8125 -5.265625 C 2.476562 -6.410156 3.3125 -7.414062 4.3125 -8.28125 C 5.320312 -9.15625 6.546875 -9.925781 7.984375 -10.59375 L 7.984375 -32.6875 C 7.984375 -35.695312 7.519531 -37.6875 6.59375 -38.65625 C 5.675781 -39.632812 3.8125 -40.257812 1 -40.53125 C 3.144531 -41.769531 5.0625 -43.234375 6.75 -44.921875 C 8.445312 -46.609375 9.914062 -48.539062 11.15625 -50.71875 C 13.195312 -49.414062 14.6875 -47.785156 15.625 -45.828125 C 16.5625 -43.867188 17.03125 -41.347656 17.03125 -38.265625 L 26.265625 -50.71875 C 27.066406 -48.570312 27.851562 -47.070312 28.625 -46.21875 C 29.394531 -45.363281 30.332031 -44.9375 31.4375 -44.9375 C 31.9375 -44.9375 32.445312 -45.035156 32.96875 -45.234375 C 33.488281 -45.441406 34.035156 -45.765625 34.609375 -46.203125 C 34.335938 -43.523438 33.488281 -41.335938 32.0625 -39.640625 C 30.644531 -37.953125 29.03125 -37.109375 27.21875 -37.109375 C 25.976562 -37.109375 24.8125 -37.414062 23.71875 -38.03125 C 22.632812 -38.65625 21.644531 -39.585938 20.75 -40.828125 L 17.03125 -35.796875 L 17.03125 -10.703125 C 18.394531 -10.234375 19.5625 -9.726562 20.53125 -9.1875 C 21.507812 -8.65625 22.332031 -8.050781 23 -7.375 L 24.859375 -8.734375 L 25.859375 -7.734375 C 23.316406 -6.054688 21.125 -4.445312 19.28125 -2.90625 C 17.445312 -1.375 15.976562 0.113281 14.875 1.5625 Z M 14.875 1.5625"/></g></g></g><g fill-opacity="1" fill="#272728"><g transform="translate(360.434724, 118.699142)"><g><path d="M 20.140625 -43.78125 L 17.078125 -42.984375 L 17.078125 -19.828125 L 29.328125 -28.078125 Z M 2.765625 -2.453125 C 2.765625 -4.296875 3.207031 -5.867188 4.09375 -7.171875 C 4.976562 -8.484375 6.289062 -9.488281 8.03125 -10.1875 L 8.03125 -34.65625 C 8.03125 -36.53125 7.796875 -38.148438 7.328125 -39.515625 C 6.859375 -40.890625 6.125 -42.144531 5.125 -43.28125 L 8.640625 -43.28125 C 12.390625 -43.28125 16.128906 -43.957031 19.859375 -45.3125 C 23.585938 -46.675781 26.523438 -48.410156 28.671875 -50.515625 C 29.679688 -47.234375 31.054688 -44.066406 32.796875 -41.015625 C 34.535156 -37.972656 36.5625 -35.195312 38.875 -32.6875 L 17.078125 -17.875 L 17.078125 -11.140625 C 19.785156 -10.804688 22.25 -10.253906 24.46875 -9.484375 C 26.695312 -8.722656 28.617188 -7.753906 30.234375 -6.578125 L 33.09375 -8.84375 L 34.046875 -7.640625 L 22.84375 2.265625 C 20.738281 0.421875 18.40625 -1 15.84375 -2 C 13.28125 -3.007812 10.675781 -3.515625 8.03125 -3.515625 C 7.09375 -3.515625 6.195312 -3.429688 5.34375 -3.265625 C 4.488281 -3.097656 3.628906 -2.828125 2.765625 -2.453125 Z M 2.765625 -2.453125"/></g></g></g><g fill-opacity="1" fill="#272728"><g transform="translate(395.174051, 118.699142)"><g><path d="M 19.328125 -24.453125 C 21.109375 -26.429688 23.554688 -29.023438 26.671875 -32.234375 C 32.328125 -38.066406 35.4375 -42.066406 36 -44.234375 C 34.664062 -42.734375 33.316406 -41.601562 31.953125 -40.84375 C 30.597656 -40.09375 29.269531 -39.71875 27.96875 -39.71875 C 26.632812 -39.71875 25.390625 -40.117188 24.234375 -40.921875 C 23.078125 -41.722656 22.097656 -42.894531 21.296875 -44.4375 L 16.875 -43.28125 L 16.875 -24.453125 Z M 6.171875 -7.28125 C 7.617188 -8.351562 9.21875 -9.207031 10.96875 -9.84375 C 12.726562 -10.476562 14.3125 -10.796875 15.71875 -10.796875 C 17.320312 -10.796875 18.828125 -10.394531 20.234375 -9.59375 C 21.640625 -8.789062 23.082031 -7.519531 24.5625 -5.78125 L 28.78125 -6.671875 L 28.78125 -25.71875 L 23.75 -25.71875 C 21.34375 -23 18.035156 -19.65625 13.828125 -15.6875 C 9.628906 -11.71875 7.078125 -8.914062 6.171875 -7.28125 Z M 3.265625 1.5625 L 2.0625 1.5625 C 2.0625 1.425781 2.078125 1.207031 2.109375 0.90625 C 2.140625 0.601562 2.15625 0.367188 2.15625 0.203125 C 2.15625 -2.171875 3.097656 -4.847656 4.984375 -7.828125 C 6.878906 -10.804688 10.289062 -14.804688 15.21875 -19.828125 L 5.875 -19.828125 C 6.582031 -20.941406 7.082031 -22.03125 7.375 -23.09375 C 7.675781 -24.164062 7.828125 -25.488281 7.828125 -27.0625 L 7.828125 -39.375 C 7.828125 -40.269531 7.648438 -41.132812 7.296875 -41.96875 C 6.953125 -42.8125 6.445312 -43.601562 5.78125 -44.34375 C 6.113281 -44.3125 6.851562 -44.253906 8 -44.171875 C 9.15625 -44.085938 10.085938 -44.046875 10.796875 -44.046875 C 14.242188 -44.046875 17.457031 -44.554688 20.4375 -45.578125 C 23.414062 -46.597656 26.195312 -48.128906 28.78125 -50.171875 C 29.71875 -48.992188 30.65625 -48.117188 31.59375 -47.546875 C 32.53125 -46.984375 33.484375 -46.703125 34.453125 -46.703125 C 35.453125 -46.703125 36.234375 -46.992188 36.796875 -47.578125 C 37.367188 -48.160156 37.722656 -49.023438 37.859375 -50.171875 L 39.46875 -50.171875 C 39.070312 -47.285156 38.160156 -44.503906 36.734375 -41.828125 C 35.304688 -39.148438 32.453125 -35.316406 28.171875 -30.328125 L 39.578125 -30.328125 C 39.003906 -29.828125 38.570312 -29.023438 38.28125 -27.921875 C 38 -26.816406 37.859375 -25.359375 37.859375 -23.546875 L 37.859375 -11.84375 C 37.859375 -9.875 38 -8.316406 38.28125 -7.171875 C 38.570312 -6.035156 39.050781 -4.914062 39.71875 -3.8125 C 38.414062 -4.21875 37.117188 -4.519531 35.828125 -4.71875 C 34.535156 -4.914062 33.222656 -5.015625 31.890625 -5.015625 C 28.703125 -5.015625 25.84375 -4.460938 23.3125 -3.359375 C 20.789062 -2.253906 18.476562 -0.550781 16.375 1.75 C 14.632812 -0.320312 13.160156 -1.765625 11.953125 -2.578125 C 10.742188 -3.398438 9.503906 -3.8125 8.234375 -3.8125 C 6.859375 -3.8125 5.726562 -3.332031 4.84375 -2.375 C 3.957031 -1.425781 3.429688 -0.113281 3.265625 1.5625 Z M 3.265625 1.5625"/></g></g></g><g fill-opacity="1" fill="#272728"><g transform="translate(434.985266, 118.699142)"><g><path d="M 19.328125 -24.453125 C 21.109375 -26.429688 23.554688 -29.023438 26.671875 -32.234375 C 32.328125 -38.066406 35.4375 -42.066406 36 -44.234375 C 34.664062 -42.734375 33.316406 -41.601562 31.953125 -40.84375 C 30.597656 -40.09375 29.269531 -39.71875 27.96875 -39.71875 C 26.632812 -39.71875 25.390625 -40.117188 24.234375 -40.921875 C 23.078125 -41.722656 22.097656 -42.894531 21.296875 -44.4375 L 16.875 -43.28125 L 16.875 -24.453125 Z M 6.171875 -7.28125 C 7.617188 -8.351562 9.21875 -9.207031 10.96875 -9.84375 C 12.726562 -10.476562 14.3125 -10.796875 15.71875 -10.796875 C 17.320312 -10.796875 18.828125 -10.394531 20.234375 -9.59375 C 21.640625 -8.789062 23.082031 -7.519531 24.5625 -5.78125 L 28.78125 -6.671875 L 28.78125 -25.71875 L 23.75 -25.71875 C 21.34375 -23 18.035156 -19.65625 13.828125 -15.6875 C 9.628906 -11.71875 7.078125 -8.914062 6.171875 -7.28125 Z M 3.265625 1.5625 L 2.0625 1.5625 C 2.0625 1.425781 2.078125 1.207031 2.109375 0.90625 C 2.140625 0.601562 2.15625 0.367188 2.15625 0.203125 C 2.15625 -2.171875 3.097656 -4.847656 4.984375 -7.828125 C 6.878906 -10.804688 10.289062 -14.804688 15.21875 -19.828125 L 5.875 -19.828125 C 6.582031 -20.941406 7.082031 -22.03125 7.375 -23.09375 C 7.675781 -24.164062 7.828125 -25.488281 7.828125 -27.0625 L 7.828125 -39.375 C 7.828125 -40.269531 7.648438 -41.132812 7.296875 -41.96875 C 6.953125 -42.8125 6.445312 -43.601562 5.78125 -44.34375 C 6.113281 -44.3125 6.851562 -44.253906 8 -44.171875 C 9.15625 -44.085938 10.085938 -44.046875 10.796875 -44.046875 C 14.242188 -44.046875 17.457031 -44.554688 20.4375 -45.578125 C 23.414062 -46.597656 26.195312 -48.128906 28.78125 -50.171875 C 29.71875 -48.992188 30.65625 -48.117188 31.59375 -47.546875 C 32.53125 -46.984375 33.484375 -46.703125 34.453125 -46.703125 C 35.453125 -46.703125 36.234375 -46.992188 36.796875 -47.578125 C 37.367188 -48.160156 37.722656 -49.023438 37.859375 -50.171875 L 39.46875 -50.171875 C 39.070312 -47.285156 38.160156 -44.503906 36.734375 -41.828125 C 35.304688 -39.148438 32.453125 -35.316406 28.171875 -30.328125 L 39.578125 -30.328125 C 39.003906 -29.828125 38.570312 -29.023438 38.28125 -27.921875 C 38 -26.816406 37.859375 -25.359375 37.859375 -23.546875 L 37.859375 -11.84375 C 37.859375 -9.875 38 -8.316406 38.28125 -7.171875 C 38.570312 -6.035156 39.050781 -4.914062 39.71875 -3.8125 C 38.414062 -4.21875 37.117188 -4.519531 35.828125 -4.71875 C 34.535156 -4.914062 33.222656 -5.015625 31.890625 -5.015625 C 28.703125 -5.015625 25.84375 -4.460938 23.3125 -3.359375 C 20.789062 -2.253906 18.476562 -0.550781 16.375 1.75 C 14.632812 -0.320312 13.160156 -1.765625 11.953125 -2.578125 C 10.742188 -3.398438 9.503906 -3.8125 8.234375 -3.8125 C 6.859375 -3.8125 5.726562 -3.332031 4.84375 -2.375 C 3.957031 -1.425781 3.429688 -0.113281 3.265625 1.5625 Z M 3.265625 1.5625"/></g></g></g><g fill-opacity="1" fill="#272728"><g transform="translate(67.068945, 64.791009)"><g><path d="M 5.03125 -2.390625 C 5.175781 -2.546875 5.285156 -2.75 5.359375 -3 C 5.429688 -3.25 5.46875 -3.554688 5.46875 -3.921875 L 5.46875 -8.78125 L 4.796875 -8.421875 L 4.796875 -8.796875 C 5.191406 -8.992188 5.59375 -9.21875 6 -9.46875 C 6.40625 -9.726562 6.828125 -10.019531 7.265625 -10.34375 L 7.265625 -5.375 C 7.265625 -4.632812 7.101562 -4.046875 6.78125 -3.609375 C 6.457031 -3.179688 5.875 -2.773438 5.03125 -2.390625 Z M 0.828125 -10.625 C 0.953125 -11.59375 1.257812 -12.289062 1.75 -12.71875 C 2.25 -13.15625 3.003906 -13.375 4.015625 -13.375 C 4.679688 -13.375 5.613281 -13.289062 6.8125 -13.125 C 8.007812 -12.96875 8.875 -12.890625 9.40625 -12.890625 C 9.851562 -12.890625 10.222656 -12.910156 10.515625 -12.953125 C 10.816406 -12.992188 11.085938 -13.070312 11.328125 -13.1875 C 11.140625 -12.738281 10.882812 -12.351562 10.5625 -12.03125 C 10.25 -11.707031 9.867188 -11.453125 9.421875 -11.265625 L 9.421875 -2.84375 C 9.617188 -3.03125 9.816406 -3.238281 10.015625 -3.46875 C 10.222656 -3.707031 10.425781 -3.960938 10.625 -4.234375 C 10.351562 -2.785156 9.765625 -1.632812 8.859375 -0.78125 C 7.960938 0.0625 6.882812 0.484375 5.625 0.484375 C 4.25 0.484375 3.113281 0.0195312 2.21875 -0.90625 C 1.332031 -1.84375 0.890625 -3.050781 0.890625 -4.53125 C 0.890625 -5.789062 1.148438 -6.945312 1.671875 -8 C 2.203125 -9.0625 2.945312 -9.929688 3.90625 -10.609375 C 3.40625 -9.816406 3.046875 -9.066406 2.828125 -8.359375 C 2.609375 -7.648438 2.5 -6.90625 2.5 -6.125 C 2.5 -4.75 2.816406 -3.644531 3.453125 -2.8125 C 4.085938 -1.988281 4.921875 -1.578125 5.953125 -1.578125 C 6.453125 -1.578125 6.972656 -1.664062 7.515625 -1.84375 C 8.054688 -2.03125 8.597656 -2.296875 9.140625 -2.640625 L 9.140625 -11.1875 C 8.878906 -11.125 8.640625 -11.070312 8.421875 -11.03125 C 8.210938 -11 8.015625 -10.984375 7.828125 -10.984375 C 7.523438 -10.984375 6.796875 -11.050781 5.640625 -11.1875 C 4.484375 -11.320312 3.488281 -11.390625 2.65625 -11.390625 C 2.175781 -11.390625 1.789062 -11.328125 1.5 -11.203125 C 1.207031 -11.078125 0.984375 -10.882812 0.828125 -10.625 Z M 0.828125 -10.625"/></g></g></g><g fill-opacity="1" fill="#272728"><g transform="translate(79.058838, 64.791009)"><g><path d="M 7.5625 -3.484375 C 7.6875 -3.535156 7.804688 -3.570312 7.921875 -3.59375 C 8.035156 -3.613281 8.15625 -3.625 8.28125 -3.625 C 8.382812 -3.625 8.59375 -3.578125 8.90625 -3.484375 L 8.9375 -3.484375 L 8.9375 -5.3125 C 8.84375 -5.269531 8.75 -5.238281 8.65625 -5.21875 C 8.570312 -5.207031 8.484375 -5.203125 8.390625 -5.203125 C 8.253906 -5.203125 8.113281 -5.207031 7.96875 -5.21875 C 7.832031 -5.238281 7.695312 -5.269531 7.5625 -5.3125 Z M 7.5625 -7.5 L 7.5625 -5.578125 C 7.707031 -5.535156 7.835938 -5.503906 7.953125 -5.484375 C 8.078125 -5.460938 8.203125 -5.453125 8.328125 -5.453125 C 8.441406 -5.453125 8.546875 -5.460938 8.640625 -5.484375 C 8.742188 -5.503906 8.84375 -5.535156 8.9375 -5.578125 L 8.9375 -6.953125 C 8.707031 -7.015625 8.503906 -7.101562 8.328125 -7.21875 C 8.160156 -7.332031 8.007812 -7.472656 7.875 -7.640625 Z M 4.609375 -2.4375 C 4.765625 -2.625 4.875 -2.828125 4.9375 -3.046875 C 5.007812 -3.273438 5.046875 -3.601562 5.046875 -4.03125 L 5.046875 -9.234375 C 5.046875 -9.921875 5.109375 -10.421875 5.234375 -10.734375 C 5.367188 -11.054688 5.601562 -11.382812 5.9375 -11.71875 C 6.445312 -12.238281 6.972656 -12.632812 7.515625 -12.90625 C 8.066406 -13.175781 8.59375 -13.3125 9.09375 -13.3125 C 9.539062 -13.3125 9.921875 -13.234375 10.234375 -13.078125 C 10.546875 -12.929688 10.847656 -12.679688 11.140625 -12.328125 L 11.390625 -12.4375 L 11.5 -12.21875 C 11.175781 -12.0625 10.84375 -11.851562 10.5 -11.59375 C 10.15625 -11.332031 9.789062 -11.003906 9.40625 -10.609375 C 9.320312 -11.097656 9.128906 -11.492188 8.828125 -11.796875 C 8.535156 -12.097656 8.195312 -12.25 7.8125 -12.25 C 7.414062 -12.25 7.132812 -12.128906 6.96875 -11.890625 C 6.8125 -11.660156 6.734375 -11.160156 6.734375 -10.390625 L 6.734375 -7.34375 L 7.28125 -7.609375 L 7.28125 -9 L 7.5625 -9 L 7.5625 -7.796875 C 8.050781 -8.097656 8.472656 -8.378906 8.828125 -8.640625 C 9.179688 -8.910156 9.453125 -9.144531 9.640625 -9.34375 C 9.804688 -9.019531 10 -8.773438 10.21875 -8.609375 C 10.4375 -8.441406 10.675781 -8.359375 10.9375 -8.359375 C 11 -8.359375 11.117188 -8.390625 11.296875 -8.453125 C 11.347656 -8.460938 11.382812 -8.46875 11.40625 -8.46875 C 11.394531 -8.226562 11.332031 -8.015625 11.21875 -7.828125 C 11.113281 -7.640625 10.953125 -7.472656 10.734375 -7.328125 L 10.734375 -2.0625 C 10.734375 -1.789062 10.753906 -1.546875 10.796875 -1.328125 C 10.835938 -1.109375 10.898438 -0.890625 10.984375 -0.671875 C 10.765625 -0.742188 10.582031 -0.796875 10.4375 -0.828125 C 10.289062 -0.867188 10.148438 -0.890625 10.015625 -0.890625 C 9.628906 -0.890625 9.289062 -0.789062 9 -0.59375 C 8.707031 -0.40625 8.5625 -0.1875 8.5625 0.0625 C 8.5625 0.238281 8.773438 0.523438 9.203125 0.921875 C 9.640625 1.328125 9.859375 1.773438 9.859375 2.265625 C 9.859375 2.660156 9.742188 2.984375 9.515625 3.234375 C 9.296875 3.484375 9.019531 3.609375 8.6875 3.609375 C 8.632812 3.609375 8.578125 3.601562 8.515625 3.59375 C 8.460938 3.59375 8.40625 3.585938 8.34375 3.578125 C 8.539062 3.421875 8.6875 3.238281 8.78125 3.03125 C 8.875 2.820312 8.921875 2.582031 8.921875 2.3125 C 8.921875 2 8.800781 1.628906 8.5625 1.203125 C 8.332031 0.773438 8.21875 0.46875 8.21875 0.28125 C 8.21875 -0.0078125 8.335938 -0.3125 8.578125 -0.625 C 8.816406 -0.9375 8.9375 -1.125 8.9375 -1.1875 L 8.9375 -3.21875 C 8.832031 -3.269531 8.722656 -3.304688 8.609375 -3.328125 C 8.503906 -3.359375 8.40625 -3.375 8.3125 -3.375 C 8.207031 -3.375 8.09375 -3.363281 7.96875 -3.34375 C 7.851562 -3.320312 7.726562 -3.285156 7.59375 -3.234375 L 7.5625 -1.71875 L 7.953125 -1.484375 L 8.34375 -1.84375 L 8.53125 -1.671875 C 8.175781 -1.316406 7.863281 -0.957031 7.59375 -0.59375 C 7.320312 -0.226562 7.070312 0.160156 6.84375 0.578125 C 6.46875 0.304688 6.082031 0.101562 5.6875 -0.03125 C 5.289062 -0.164062 4.878906 -0.234375 4.453125 -0.234375 C 4.066406 -0.234375 3.6875 -0.171875 3.3125 -0.046875 C 2.945312 0.078125 2.582031 0.265625 2.21875 0.515625 C 2.550781 -0.273438 3.066406 -0.90625 3.765625 -1.375 C 4.460938 -1.84375 5.21875 -2.078125 6.03125 -2.078125 C 6.238281 -2.078125 6.4375 -2.0625 6.625 -2.03125 C 6.8125 -2 7.03125 -1.941406 7.28125 -1.859375 L 7.28125 -7.34375 L 6.734375 -7.0625 L 6.734375 -5.5 C 6.734375 -4.6875 6.566406 -4.046875 6.234375 -3.578125 C 5.910156 -3.109375 5.367188 -2.726562 4.609375 -2.4375 Z M 0.515625 -11.21875 C 0.710938 -11.875 1.007812 -12.382812 1.40625 -12.75 C 1.800781 -13.125 2.253906 -13.3125 2.765625 -13.3125 C 3.023438 -13.3125 3.40625 -13.25 3.90625 -13.125 C 4.40625 -13.007812 4.789062 -12.953125 5.0625 -12.953125 C 5.21875 -12.953125 5.363281 -12.96875 5.5 -13 C 5.644531 -13.039062 5.804688 -13.101562 5.984375 -13.1875 C 5.691406 -12.550781 5.375 -12.09375 5.03125 -11.8125 C 4.6875 -11.53125 4.28125 -11.390625 3.8125 -11.390625 C 3.59375 -11.390625 3.253906 -11.445312 2.796875 -11.5625 C 2.335938 -11.6875 1.976562 -11.75 1.71875 -11.75 C 1.40625 -11.75 1.015625 -11.570312 0.546875 -11.21875 Z M 1.65625 -0.640625 C 1.914062 -0.960938 2.101562 -1.304688 2.21875 -1.671875 C 2.332031 -2.046875 2.390625 -2.609375 2.390625 -3.359375 L 2.390625 -6.03125 C 2.347656 -6.03125 2.304688 -6.03125 2.265625 -6.03125 C 2.222656 -6.039062 2.171875 -6.046875 2.109375 -6.046875 C 1.773438 -6.046875 1.515625 -5.988281 1.328125 -5.875 C 1.148438 -5.757812 1.039062 -5.570312 1 -5.3125 C 0.882812 -5.4375 0.800781 -5.566406 0.75 -5.703125 C 0.707031 -5.847656 0.6875 -6.019531 0.6875 -6.21875 C 0.6875 -6.71875 0.820312 -7.117188 1.09375 -7.421875 C 1.363281 -7.722656 1.734375 -7.875 2.203125 -7.875 L 2.390625 -7.875 C 2.378906 -7.96875 2.375 -8.109375 2.375 -8.296875 C 2.375 -8.878906 2.53125 -9.363281 2.84375 -9.75 C 3.15625 -10.132812 3.757812 -10.539062 4.65625 -10.96875 C 4.476562 -10.726562 4.351562 -10.460938 4.28125 -10.171875 C 4.21875 -9.890625 4.1875 -9.40625 4.1875 -8.71875 L 4.1875 -4.09375 C 4.1875 -3.25 3.992188 -2.578125 3.609375 -2.078125 C 3.234375 -1.578125 2.582031 -1.097656 1.65625 -0.640625 Z M 1.65625 -0.640625"/></g></g></g><g fill-opacity="1" fill="#272728"><g transform="translate(92.086043, 64.791009)"><g><path d="M 1.953125 0.484375 C 2.316406 -0.078125 2.785156 -0.570312 3.359375 -1 C 3.941406 -1.425781 4.625 -1.773438 5.40625 -2.046875 L 5.40625 -9.3125 C 5.40625 -10.59375 5.703125 -11.59375 6.296875 -12.3125 C 6.898438 -13.039062 7.722656 -13.40625 8.765625 -13.40625 C 9.054688 -13.40625 9.347656 -13.363281 9.640625 -13.28125 C 9.941406 -13.207031 10.257812 -13.085938 10.59375 -12.921875 L 10.765625 -13.125 L 11 -13 C 10.726562 -12.632812 10.484375 -12.257812 10.265625 -11.875 C 10.046875 -11.488281 9.867188 -11.113281 9.734375 -10.75 C 9.453125 -11.082031 9.128906 -11.332031 8.765625 -11.5 C 8.410156 -11.664062 8.015625 -11.75 7.578125 -11.75 C 6.960938 -11.75 6.488281 -11.53125 6.15625 -11.09375 C 5.832031 -10.664062 5.671875 -10.039062 5.671875 -9.21875 L 5.671875 -6.5 C 5.960938 -7.019531 6.300781 -7.398438 6.6875 -7.640625 C 7.082031 -7.890625 7.535156 -8.015625 8.046875 -8.015625 C 8.359375 -8.015625 8.65625 -7.972656 8.9375 -7.890625 C 9.226562 -7.804688 9.515625 -7.675781 9.796875 -7.5 L 10.03125 -7.765625 L 10.265625 -7.578125 C 9.984375 -7.234375 9.71875 -6.867188 9.46875 -6.484375 C 9.226562 -6.109375 9.007812 -5.707031 8.8125 -5.28125 C 8.664062 -5.632812 8.425781 -5.910156 8.09375 -6.109375 C 7.769531 -6.304688 7.40625 -6.40625 7 -6.40625 C 6.738281 -6.40625 6.5 -6.363281 6.28125 -6.28125 C 6.070312 -6.195312 5.867188 -6.054688 5.671875 -5.859375 L 5.671875 -2.109375 C 6.003906 -2.191406 6.3125 -2.253906 6.59375 -2.296875 C 6.882812 -2.335938 7.160156 -2.359375 7.421875 -2.359375 C 8.015625 -2.359375 8.570312 -2.28125 9.09375 -2.125 C 9.613281 -1.96875 10.117188 -1.726562 10.609375 -1.40625 L 11 -1.984375 L 11.21875 -1.828125 C 10.9375 -1.398438 10.675781 -0.992188 10.4375 -0.609375 C 10.207031 -0.234375 10 0.125 9.8125 0.46875 C 9.363281 0.164062 8.847656 -0.0546875 8.265625 -0.203125 C 7.691406 -0.359375 7.023438 -0.4375 6.265625 -0.4375 C 5.472656 -0.4375 4.738281 -0.363281 4.0625 -0.21875 C 3.394531 -0.0703125 2.691406 0.160156 1.953125 0.484375 Z M 0.515625 -11 C 0.597656 -11.707031 0.867188 -12.273438 1.328125 -12.703125 C 1.785156 -13.140625 2.34375 -13.359375 3 -13.359375 C 3.289062 -13.359375 3.675781 -13.289062 4.15625 -13.15625 C 4.632812 -13.019531 4.984375 -12.953125 5.203125 -12.953125 C 5.367188 -12.953125 5.519531 -12.972656 5.65625 -13.015625 C 5.789062 -13.066406 5.921875 -13.132812 6.046875 -13.21875 C 5.796875 -12.539062 5.5 -12.050781 5.15625 -11.75 C 4.820312 -11.445312 4.40625 -11.296875 3.90625 -11.296875 C 3.601562 -11.296875 3.195312 -11.359375 2.6875 -11.484375 C 2.175781 -11.617188 1.832031 -11.6875 1.65625 -11.6875 C 1.40625 -11.6875 1.203125 -11.640625 1.046875 -11.546875 C 0.890625 -11.453125 0.710938 -11.269531 0.515625 -11 Z M 2.125 -1.171875 C 2.3125 -1.398438 2.441406 -1.648438 2.515625 -1.921875 C 2.597656 -2.203125 2.640625 -2.648438 2.640625 -3.265625 L 2.640625 -5.65625 C 2.546875 -5.65625 2.4375 -5.65625 2.3125 -5.65625 C 2.1875 -5.664062 2.101562 -5.671875 2.0625 -5.671875 C 1.757812 -5.671875 1.535156 -5.609375 1.390625 -5.484375 C 1.242188 -5.359375 1.160156 -5.164062 1.140625 -4.90625 C 1.035156 -5.050781 0.960938 -5.222656 0.921875 -5.421875 C 0.878906 -5.617188 0.859375 -5.851562 0.859375 -6.125 C 0.859375 -6.570312 0.945312 -6.90625 1.125 -7.125 C 1.3125 -7.351562 1.582031 -7.46875 1.9375 -7.46875 C 2.050781 -7.46875 2.164062 -7.460938 2.28125 -7.453125 C 2.394531 -7.453125 2.507812 -7.441406 2.625 -7.421875 L 2.640625 -8.3125 C 2.640625 -8.945312 2.796875 -9.441406 3.109375 -9.796875 C 3.429688 -10.160156 4.035156 -10.507812 4.921875 -10.84375 C 4.710938 -10.59375 4.5625 -10.335938 4.46875 -10.078125 C 4.375 -9.816406 4.328125 -9.5 4.328125 -9.125 L 4.328125 -4.109375 C 4.328125 -3.378906 4.171875 -2.832031 3.859375 -2.46875 C 3.554688 -2.101562 2.976562 -1.671875 2.125 -1.171875 Z M 2.125 -1.171875"/></g></g></g></svg>